<svg aria-hidden="true" style="position: absolute; width: 0; height: 0; overflow: hidden;" version="1.1" xmlns="http://www.w3.org/2000/svg" xmlns:xlink="http://www.w3.org/1999/xlink">
<defs>
<symbol id="icon-confirmation" viewBox="0 0 32 32">
<title>confirmation</title>
<path fill="#e1c15d" style="fill: var(--color1, #e1c15d)" d="M29.3 0h-26.6c-1.49 0.002-2.698 1.21-2.7 2.7v6.1c0.002 1.49 1.21 2.698 2.7 2.7h1.053c0 6.275 0 5.901 0 5.987-0.279-0.102-0.602-0.161-0.938-0.161-1.553 0-2.813 1.259-2.814 2.812v0s0 0 0 0v4.532c0.005 4.047 3.284 7.326 7.33 7.33h6.176c4.046-0.005 7.325-3.284 7.33-7.33v-0c0-4.935 0-5.645 0-5.69-0.082-1.541-1.352-2.76-2.906-2.76-0.437 0-0.851 0.096-1.222 0.268l0.018-0.007c-0.398-1.103-1.436-1.877-2.655-1.877-0.373 0-0.729 0.072-1.055 0.204l0.019-0.007c-0.336-1.206-1.425-2.076-2.717-2.076-0.336 0-0.659 0.059-0.957 0.167l0.020-0.006v-1.387h19.92c1.49-0.002 2.697-1.208 2.7-2.698v-6.1c-0.002-1.49-1.21-2.698-2.7-2.7h-0zM1.875 8.8v-6.1c0.001-0.455 0.37-0.824 0.825-0.825h16.93v7.748h-10.26c-0.116-1.456-1.327-2.594-2.803-2.594-0.024 0-0.048 0-0.072 0.001l0.004-0c-1.44 0.054-2.603 1.168-2.734 2.582l-0.001 0.011h-1.065c-0.455-0-0.824-0.368-0.825-0.823v-0zM10.32 14.6c0.519 0.001 0.939 0.421 0.939 0.94 0 0 0 0.001 0 0.001v-0 1.88s0 0.003 0 0.005v2.93c0 0.518 0.42 0.938 0.938 0.938s0.938-0.42 0.938-0.938v0-2.942c-0-0.005-0-0.011-0-0.017 0-0.518 0.42-0.939 0.939-0.939s0.939 0.42 0.939 0.939c0 0.008-0 0.015-0 0.023l0-0.001c0 0.005 0 0.071 0 2.934 0 0.518 0.42 0.938 0.938 0.938s0.938-0.42 0.938-0.938v0s0.003-0.414 0.003-1.216c-0-0.004-0-0.008-0-0.013 0-0.573 0.464-1.037 1.037-1.037 0.553 0 1.005 0.433 1.036 0.978l0 0.003v5.6c-0.003 3.013-2.444 5.454-5.457 5.456h-6.175c-3.011-0.003-5.452-2.444-5.455-5.455v-4.534c0-0.518 0.42-0.939 0.939-0.939s0.939 0.42 0.939 0.939v0 3.272c0 0.518 0.42 0.938 0.938 0.938s0.938-0.42 0.938-0.938v0c0-0.367 0-13.158 0-13.526-0-0.004-0-0.010-0-0.015 0-0.516 0.404-0.937 0.913-0.964l0.002-0c0.006-0 0.013-0 0.020-0 0.519 0 0.94 0.421 0.94 0.94 0 0.001 0 0.001 0 0.002v-0c0 0.427 0 10.010 0 10.508 0 0.518 0.42 0.938 0.938 0.938s0.938-0.42 0.938-0.938v0-4.818c0.003-0.517 0.423-0.935 0.94-0.935 0 0 0.001 0 0.001 0h-0zM30.125 8.8c-0 0.455-0.369 0.825-0.825 0.825h-7.794v-7.75h7.794c0.455 0.001 0.824 0.37 0.825 0.825v0z"></path>
<path fill="rgba(225, 193, 93, 0.3)" style="fill: var(--color2, rgba(225, 193, 93, 0.3))" d="M27.153 3.748l-2.013 2.014-0.663-0.663c-0.17-0.17-0.404-0.275-0.663-0.275-0.518 0-0.938 0.42-0.938 0.938 0 0.259 0.105 0.493 0.275 0.663l1.326 1.326c0.17 0.17 0.404 0.275 0.663 0.275s0.493-0.105 0.663-0.275l2.676-2.676c0.17-0.17 0.275-0.404 0.275-0.663 0-0.518-0.42-0.938-0.938-0.938-0.259 0-0.493 0.105-0.663 0.275v0z"></path>
<path fill="rgba(225, 193, 93, 0.3)" style="fill: var(--color2, rgba(225, 193, 93, 0.3))" d="M4.688 5.625h12.13c0.509-0.011 0.918-0.426 0.918-0.937s-0.409-0.927-0.917-0.937l-0.001-0h-12.13c-0.518 0-0.938 0.42-0.938 0.938s0.42 0.938 0.938 0.938v0z"></path>
</symbol>
<symbol id="icon-dollar" viewBox="0 0 28 32">
<title>dollar</title>
<path fill="#e1c15d" style="fill: var(--color1, #e1c15d)" d="M25.312 18.875c-0.812 0.001-1.543 0.345-2.057 0.894l-0.001 0.002-2.756 2.958c-0.368-1.155-1.431-1.977-2.686-1.979h-3.464c-0.245-0.109-0.456-0.246-0.643-0.411l0.003 0.002c-1.151-1.013-2.671-1.631-4.335-1.631s-3.184 0.618-4.343 1.638l0.007-0.006-2.594 2.283h-1.505c-0.518 0-0.938 0.42-0.938 0.938 0 0 0 0 0 0v-0 7.5c0 0.518 0.42 0.938 0.938 0.938h16.875c2.138-0.005 4.037-1.027 5.238-2.609l0.012-0.016 4.501-6c0.351-0.464 0.562-1.051 0.562-1.687 0-1.553-1.259-2.812-2.812-2.812-0 0-0 0-0 0h0zM26.063 22.249l-4.501 6c-0.866 1.141-2.223 1.871-3.749 1.875h-15.938v-5.624h0.925c0.238 0 0.455-0.089 0.62-0.234l-0.001 0.001 2.86-2.517c0.822-0.724 1.908-1.165 3.097-1.165s2.275 0.442 3.102 1.17l-0.005-0.005c0.395 0.348 1.212 0.876 1.695 0.876h3.646c0.518 0 0.938 0.42 0.938 0.938s-0.42 0.938-0.938 0.938h-5.626c-0.518 0-0.938 0.42-0.938 0.938s0.42 0.938 0.938 0.938h6.252c0.811-0.001 1.543-0.345 2.057-0.894l0.001-0.002 4.127-4.431c0.17-0.184 0.413-0.299 0.682-0.299 0.001 0 0.003 0 0.004 0h-0c0.518 0 0.937 0.42 0.938 0.938v0c0 0.001 0 0.002 0 0.003 0 0.21-0.070 0.404-0.188 0.56l0.002-0.002z"></path>
<path fill="#e1c15d" style="fill: var(--color1, #e1c15d)" d="M17.813 0c-4.66 0-8.438 3.778-8.438 8.438s3.778 8.438 8.438 8.438c4.66 0 8.438-3.778 8.438-8.438v0c-0.005-4.658-3.78-8.432-8.437-8.438h-0.001zM17.813 15c-3.624 0-6.562-2.938-6.562-6.562s2.938-6.562 6.562-6.562c3.624 0 6.562 2.938 6.562 6.562v0c-0.004 3.623-2.94 6.558-6.562 6.562h-0z"></path>
<path fill="rgba(225, 193, 93, 0.3)" style="fill: var(--color2, rgba(225, 193, 93, 0.3))" d="M17.812 7.5c-0.518 0-0.938-0.42-0.938-0.938s0.42-0.938 0.938-0.938c0.518 0 0.938 0.42 0.938 0.938v0c0 0.518 0.42 0.938 0.938 0.938s0.938-0.42 0.938-0.938v0c-0.002-1.217-0.774-2.252-1.855-2.645l-0.020-0.006v-1.099c-0.011-0.509-0.426-0.918-0.937-0.918s-0.927 0.409-0.937 0.917l-0 0.001v1.099c-1.101 0.398-1.874 1.434-1.874 2.651 0 1.553 1.259 2.812 2.811 2.812h0c0.518 0 0.938 0.42 0.938 0.938s-0.42 0.938-0.938 0.938c-0.518 0-0.938-0.42-0.938-0.938v0c-0.011-0.509-0.426-0.918-0.937-0.918s-0.927 0.409-0.937 0.917l-0 0.001c0.002 1.217 0.774 2.252 1.856 2.645l0.020 0.006v1.099c0 0.518 0.42 0.938 0.938 0.938s0.938-0.42 0.938-0.938v0-1.099c1.101-0.398 1.874-1.434 1.874-2.651 0-1.553-1.259-2.812-2.811-2.812h-0z"></path>
</symbol>
<symbol id="icon-facebook" viewBox="0 0 17 32">
<title>facebook</title>
<path fill="#fff" style="fill: var(--color3, #fff)" d="M16.015 18l0.894-5.792h-5.557v-3.762c-0.007-0.076-0.011-0.165-0.011-0.254 0-1.599 1.296-2.895 2.895-2.895 0.133 0 0.263 0.009 0.391 0.026l-0.015-0.002h2.534v-4.929c-1.335-0.228-2.888-0.369-4.469-0.392l-0.023-0c-4.576 0-7.569 2.774-7.569 7.796v4.412h-5.084v5.791h5.084v14h6.26v-13.998z"></path>
</symbol>
<symbol id="icon-twitter" viewBox="0 0 41 32">
<title>twitter</title>
<path fill="#fff" style="fill: var(--color3, #fff)" d="M36.777 7.975c0.027 0.349 0.027 0.7 0.027 1.049-0.162 12.729-10.518 22.985-23.269 22.985-0.222 0-0.443-0.003-0.664-0.009l0.032 0.001c-0.027 0-0.059 0-0.091 0-4.741 0-9.167-1.35-12.915-3.686l0.103 0.060c0.57 0.064 1.231 0.1 1.901 0.1 0.045 0 0.091-0 0.136-0l-0.007 0c0.025 0 0.054 0 0.083 0 3.904 0 7.505-1.296 10.397-3.481l-0.044 0.032c-3.614-0.024-6.683-2.332-7.838-5.552l-0.018-0.058c0.475 0.076 1.024 0.121 1.584 0.125l0.004 0c0.786-0.002 1.548-0.102 2.275-0.288l-0.064 0.014c-3.817-0.691-6.684-3.959-6.747-7.908l-0-0.007v-0.094c1.099 0.599 2.4 0.972 3.782 1.024l0.016 0c-2.25-1.43-3.725-3.904-3.74-6.724v-0.002c0-0.004 0-0.008 0-0.013 0-1.503 0.426-2.906 1.164-4.095l-0.019 0.033c4.239 4.934 10.379 8.132 17.271 8.448l0.053 0.002c-0.128-0.554-0.204-1.192-0.208-1.847v-0.003c0.092-4.48 3.746-8.076 8.239-8.076 0.058 0 0.115 0.001 0.172 0.002l-0.009-0c0.015-0 0.034-0 0.052-0 2.383 0 4.538 0.975 6.087 2.549l0.001 0.001c2.007-0.377 3.796-1.055 5.415-1.992l-0.081 0.044c-0.671 1.912-1.979 3.459-3.665 4.419l-0.040 0.021c1.791-0.198 3.428-0.638 4.953-1.29l-0.113 0.043c-1.177 1.628-2.572 3.010-4.161 4.135l-0.055 0.037z"></path>
</symbol>
<symbol id="icon-youtube" viewBox="0 0 46 32">
<title>youtube</title>
<path fill="#fff" style="fill: var(--color3, #fff)" d="M44.562 5.007c-0.535-1.976-2.053-3.504-3.984-4.045l-0.040-0.010c-3.549-0.953-17.782-0.953-17.782-0.953s-14.232 0-17.782 0.957c-1.971 0.55-3.489 2.078-4.015 4.014l-0.009 0.040c-0.605 3.315-0.951 7.13-0.951 11.025s0.346 7.711 1.009 11.416l-0.058-0.39c0.54 1.957 2.060 3.463 3.984 3.976l0.039 0.009c3.549 0.957 17.782 0.957 17.782 0.957s14.232 0 17.782-0.957c1.964-0.522 3.483-2.028 4.014-3.946l0.009-0.040c0.605-3.315 0.951-7.13 0.951-11.025s-0.346-7.711-1.009-11.416l0.058 0.39zM18.102 22.799v-13.533l11.895 6.766z"></path>
</symbol>
<symbol id="icon-group_1434" viewBox="0 0 104 32">
<title>group_1434</title>
<path fill="#e1c15d" style="fill: var(--color1, #e1c15d)" d="M79.272 23.194q-0.68 3.573-1.362 7.149c-0.053 0.277-0.098 0.555-0.16 0.829-0.046 0.203-0.16 0.48 0 0.675 0.093 0.089 0.22 0.144 0.36 0.144 0.021 0 0.042-0.001 0.063-0.004l-0.002 0c0.272 0 0.542 0 0.813 0h7.294c0.205 0 0.48 0.053 0.651-0.101s0.176-0.443 0.216-0.656l0.341-1.789q0.342-1.8 0.685-3.6l0.339-1.782c0.054-0.29 0.32-1.008-0.109-1.147-0.096-0.019-0.206-0.030-0.318-0.030-0.063 0-0.125 0.003-0.187 0.010l0.008-0.001h-6.965c-0.366 0-0.736 0-1.102 0-0.238-0.005-0.512 0.024-0.565 0.302z"></path>
<path fill="#e1c15d" style="fill: var(--color1, #e1c15d)" d="M104.48 11.219q-0.083-3.653-0.16-7.302-0.022-0.918-0.043-1.835c-0.013-0.542 0.024-1.12-0.042-1.653-0.007-0.182-0.143-0.33-0.318-0.357l-0.002-0c-0.125-0.011-0.271-0.016-0.418-0.016s-0.293 0.006-0.437 0.018l0.019-0.001h-7.261c-0.098-0.013-0.211-0.021-0.326-0.021-0.168 0-0.332 0.016-0.49 0.048l0.016-0.003c-0.197 0.074-0.24 0.299-0.275 0.48q-0.677 3.565-1.355 7.128-1.363 7.173-2.72 14.346l-1.371 7.216c-0.112 0.592-0.226 1.184-0.338 1.776-0.038 0.208-0.16 0.506-0.074 0.712 0.084 0.145 0.239 0.241 0.416 0.241 0.026 0 0.051-0.002 0.076-0.006l-0.003 0h8.128c0.186 0 0.426 0 0.539-0.171 0.094-0.219 0.156-0.474 0.172-0.741l0-0.007c0.059-0.302 0.12-0.603 0.178-0.906l1.41-7.16q0.691-3.52 1.384-7.027c0.112-0.571 0.226-1.142 0.339-1.712 0.056-0.285 0.112-0.571 0.17-0.858 0.014-0.286 0.088-0.553 0.21-0.79l-0.005 0.011c0.171-0.154 0.381-0.268 0.612-0.327l0.010-0.002 0.848-0.354 0.757-0.32c0.17-0.074 0.357-0.179 0.352-0.406z"></path>
<path fill="#e1c15d" style="fill: var(--color1, #e1c15d)" d="M65.704 20.586c0.258 0 0.358-0.24 0.403-0.454 0.066-0.304 0.112-0.618 0.173-0.923q0.251-1.272 0.502-2.544 0.512-2.589 1.022-5.178h-9.058c-0.006-0-0.013-0.001-0.020-0.001-0.19 0-0.348 0.137-0.38 0.318l-0 0.002c-0.070 0.266-0.106 0.546-0.16 0.816q-0.341 1.784-0.68 3.57l-0.661 3.466c-0.046 0.237-0.198 0.662 0.022 0.853 0.16 0.133 0.43 0.077 0.613 0.077h0.947q3.638-0.003 7.275-0.002z"></path>
<path fill="#e1c15d" style="fill: var(--color1, #e1c15d)" d="M69.523 0.077h-8.096c-0.213 0-0.557-0.070-0.741 0.056-0.112 0.101-0.185 0.244-0.195 0.403l-0 0.002-0.16 0.87q-0.344 1.8-0.686 3.602l-0.677 3.554c-0.037 0.19-0.074 0.394 0.107 0.523 0.144 0.068 0.313 0.108 0.491 0.108 0.067 0 0.133-0.006 0.197-0.017l-0.007 0.001h7.242c0.266 0 0.533 0 0.8 0 0.022 0.004 0.048 0.006 0.075 0.006 0.157 0 0.296-0.072 0.389-0.184l0.001-0.001c0.060-0.141 0.101-0.304 0.115-0.475l0-0.005c0.040-0.211 0.082-0.422 0.122-0.64l0.242-1.28 0.979-5.142c0.070-0.268 0.13-0.594 0.167-0.928l0.003-0.032c0-0.238-0.104-0.421-0.366-0.421z"></path>
<path fill="#e1c15d" style="fill: var(--color1, #e1c15d)" d="M79.565 20.59c0.106 0.003 0.231 0.005 0.356 0.005 2.199 0 4.267-0.558 6.072-1.539l-0.067 0.033c1.79-1.055 3.187-2.612 4.017-4.477l0.025-0.062c0.393-0.897 0.694-1.939 0.854-3.027l0.008-0.067c0.19-1.202 0.45-2.39 0.68-3.584q0.694-3.558 1.386-7.115c0.022-0.074 0.035-0.158 0.035-0.246s-0.013-0.172-0.037-0.252l0.002 0.006c-0.090-0.224-0.339-0.192-0.538-0.192h-8.123c-0.218 0-0.57-0.072-0.749 0.085-0.121 0.151-0.196 0.344-0.202 0.554l-0 0.001-0.176 0.939q-0.171 0.906-0.339 1.808-0.677 3.608-1.352 7.216c-0.038 0.206-0.037 0.509-0.195 0.667-0.109 0.085-0.249 0.136-0.4 0.136-0.028 0-0.056-0.002-0.083-0.005l0.003 0c-0.278 0-0.562 0.034-0.84 0.011-0.25-0.019-0.557-0.109-0.517-0.419 0.070-0.578 0.218-1.157 0.32-1.73q0.68-3.584 1.362-7.166l0.16-0.845c0.053-0.211 0.103-0.478 0.137-0.748l0.004-0.036c0.005-0.025 0.008-0.055 0.008-0.085 0-0.122-0.047-0.233-0.125-0.315l0 0c-0.176-0.144-0.528-0.070-0.736-0.070h-8.128c-0.184 0.003-0.336 0.14-0.361 0.318l-0 0.002c-0.15 0.53-0.216 1.096-0.32 1.634q-0.683 3.597-1.368 7.2t-1.366 7.189q-0.341 1.798-0.685 3.597l-0.341 1.798c-0.046 0.246-0.082 0.499-0.146 0.741-0.024 0.186-0.18 0.328-0.369 0.331h-11.644c-0.095 0.009-0.206 0.015-0.317 0.015-0.166 0-0.329-0.012-0.488-0.034l0.018 0.002c-0.168-0.020-0.3-0.152-0.32-0.318l-0-0.002c0.025-0.32 0.082-0.616 0.168-0.9l-0.008 0.030 1.416-7.189c0.235-1.194 0.48-2.386 0.702-3.579 0.138-0.508 0.239-1.104 0.283-1.716l0.002-0.031c-0.006-0.623-0.054-1.228-0.142-1.821l0.009 0.072c-0.223-2.19-1.248-4.106-2.773-5.478l-0.008-0.007c-0.785-0.649-1.719-1.151-2.739-1.449l-0.055-0.014c-0.472-0.142-1.032-0.255-1.606-0.316l-0.042-0.004c-0.345-0.028-0.747-0.044-1.152-0.044-0.161 0-0.321 0.003-0.48 0.007l0.023-0.001h-9.056c-0.048-0.008-0.103-0.013-0.159-0.013-0.142 0-0.277 0.031-0.398 0.086l0.006-0.002c-0.189 0.126-0.184 0.413-0.222 0.613l-0.683 3.59q-1.363 7.162-2.72 14.32c-0.053 0.282-0.107 0.565-0.16 0.846-0.068 0.221-0.107 0.475-0.107 0.738v0c0.009 0.157 0.121 0.285 0.268 0.32l0.002 0c0.146 0.016 0.315 0.026 0.487 0.026 0.136 0 0.27-0.006 0.403-0.017l-0.017 0.001h7.24c0.076 0.008 0.164 0.012 0.253 0.012 0.137 0 0.271-0.010 0.402-0.030l-0.015 0.002c0.235-0.058 0.294-0.274 0.32-0.48 0.086-0.563 0.213-1.12 0.32-1.677 0.47-2.382 0.947-4.76 1.403-7.142q0.16-0.877 0.334-1.76c0.038-0.178 0.193-0.309 0.379-0.309 0.002 0 0.003 0 0.005 0h-0c0.283-0.027 0.576 0 0.859 0 0.338 0 0.384 0.32 0.354 0.587-0.040 0.342-0.141 0.682-0.203 1.021q-0.674 3.562-1.354 7.123-0.339 1.786-0.678 3.57c-0.054 0.285-0.107 0.571-0.16 0.856-0.042 0.219-0.062 0.435-0.31 0.499-0.133 0.022-0.287 0.034-0.444 0.034-0.086 0-0.171-0.004-0.255-0.011l0.011 0.001h-21.12c-0.114 0-0.467-0.077-0.501 0.075-0.061 0.293-0.112 0.589-0.17 0.883q-0.683 3.584-1.363 7.166c-0.062 0.331-0.133 0.662-0.189 0.995h53.666c0.219 0 0.515 0.059 0.667-0.141 0.101-0.185 0.164-0.404 0.173-0.637l0-0.003 0.16-0.922c0.107-0.598 0.216-1.197 0.32-1.795 0.307-1.709 0.589-3.421 0.912-5.12 0.16-0.816 0.296-1.64 0.48-2.451 0.093-0.406 0.512-0.331 0.835-0.331 0.453-0.038 0.883-0.038 1.312-0.038z"></path>
<path fill="#e1c15d" style="fill: var(--color1, #e1c15d)" d="M23.136 11.478c0.098-0.514 0.211-1.029 0.283-1.547 0.040-0.286 0.107-0.702 0.466-0.733 0.275-0.022 0.56 0 0.835 0 0.034-0.006 0.074-0.009 0.114-0.009 0.148 0 0.286 0.043 0.402 0.116l-0.003-0.002c0.17 0.16 0.102 0.403 0.058 0.594-0.070 0.293-0.115 0.594-0.173 0.891q-0.683 3.589-1.363 7.178-0.171 0.894-0.339 1.789c-0.044 0.118-0.070 0.254-0.070 0.396 0 0.076 0.007 0.15 0.021 0.222l-0.001-0.007c0.088 0.23 0.354 0.237 0.563 0.23 1.184-0.042 2.379 0 3.568 0h4.514c0.211 0 0.454 0.040 0.578-0.173 0.080-0.176 0.137-0.379 0.159-0.593l0.001-0.009q0.091-0.462 0.184-0.93 1.41-7.158 2.771-14.325 0.341-1.79 0.68-3.581c0.052-0.141 0.083-0.305 0.083-0.475 0-0.070-0.005-0.138-0.015-0.205l0.001 0.008c-0.083-0.237-0.347-0.248-0.558-0.24-0.562 0.018-1.12 0-1.688 0q-3.611 0-7.221 0c-2.416 0-4.83 0-7.246 0h-2.694c-0.107-0.009-0.231-0.015-0.357-0.015-0.181 0-0.359 0.011-0.534 0.033l0.021-0.002c-0.186 0.044-0.323 0.203-0.336 0.396l-0 0.001c-0.054 0.293-0.112 0.586-0.16 0.877l-0.336 1.76-2.72 14.338q-0.341 1.79-0.68 3.582c-0.054 0.285-0.107 0.571-0.16 0.856l-0.077 0.405c-0.010 0.144-0.046 0.277-0.104 0.399l0.003-0.007c-0.117 0.178-0.344 0.171-0.533 0.171-0.27 0-0.538 0-0.8 0-0.027 0.005-0.058 0.008-0.090 0.008-0.156 0-0.295-0.069-0.389-0.178l-0.001-0.001c-0.142-0.222 0.010-0.592 0.058-0.829 0.117-0.6 0.237-1.197 0.354-1.797l0.704-3.579c0.944-4.787 1.853-9.581 2.765-14.376 0.074-0.382 0.146-0.766 0.218-1.149 0.035-0.186 0.072-0.374 0.107-0.56 0.006-0.149 0.029-0.289 0.067-0.424l-0.003 0.013-9 0.069c-0.070-0.005-0.152-0.008-0.234-0.008-0.143 0-0.284 0.009-0.422 0.026l0.017-0.002c-0.258 0.054-0.32 0.32-0.397 0.533-0.373 1.12-0.822 2.214-1.235 3.315s-0.837 2.24-1.253 3.36c-0.086 0.227 0.074 0.394 0.234 0.531l0.693 0.592c0.16 0.139 0.442 0.296 0.488 0.52 0.001 0.029 0.002 0.063 0.002 0.098 0 0.244-0.040 0.478-0.114 0.697l0.005-0.015q-0.683 3.589-1.363 7.178-0.341 1.79-0.68 3.579-0.16 0.891-0.339 1.781c-0.107 0.574-0.25 1.144-0.339 1.722-0.067 0.347-0.105 0.745-0.105 1.153 0 1.801 0.744 3.428 1.942 4.591l0.002 0.002c1.557 1.265 3.54 2.063 5.705 2.155l0.020 0.001c1.070 0.101 2.147 0.112 3.222 0.114q1.822 0 3.643 0h3.662c0.074 0.006 0.16 0.009 0.247 0.009 0.158 0 0.313-0.011 0.465-0.032l-0.018 0.002c0.258-0.056 0.285-0.27 0.328-0.494 0.115-0.592 0.234-1.182 0.349-1.774l1.416-7.187 1.090-5.539q0.275-1.394 0.549-2.784c0.174-0.899 0.384-1.8 0.53-2.709 0.048-0.429-0.107 0.451-0.032 0.002z"></path>
</symbol>
<symbol id="icon-question" viewBox="0 0 32 32">
<title>question</title>
<path fill="#e1c15d" style="fill: var(--color1, #e1c15d)" d="M16 29.333c-7.364 0-13.333-5.97-13.333-13.333s5.97-13.333 13.333-13.333c7.364 0 13.333 5.97 13.333 13.333v0c0 7.364-5.97 13.333-13.333 13.333v0zM14.667 20v2.667h2.667v-2.667zM17.333 17.807c1.943-0.593 3.332-2.37 3.332-4.472 0-2.577-2.089-4.667-4.667-4.667-2.253 0-4.132 1.596-4.57 3.719l-0.005 0.030 2.616 0.524c0.189-0.923 0.995-1.608 1.961-1.608 1.105 0 2 0.895 2 2s-0.895 2-2 2v0c-0.736 0-1.333 0.597-1.333 1.333v0 2h2.667z"></path>
</symbol>
<symbol id="icon-features" viewBox="0 0 32 32">
<title>features</title>
<path fill="#e1c15d" style="fill: var(--color1, #e1c15d)" d="M6.497 4h19.005c0 0 0 0 0 0 0.442 0 0.833 0.215 1.076 0.546l0.003 0.004 5.097 7.008c0.080 0.108 0.127 0.245 0.127 0.392 0 0.175-0.067 0.334-0.177 0.453l0-0-15.14 16.399c-0.122 0.132-0.296 0.214-0.489 0.214s-0.367-0.082-0.489-0.213l-0-0-15.14-16.4c-0.11-0.118-0.177-0.278-0.177-0.453 0-0.148 0.048-0.284 0.129-0.395l-0.001 0.002 5.097-7.005c0.245-0.335 0.637-0.549 1.078-0.549 0 0 0 0 0 0v0z"></path>
</symbol>
<symbol id="icon-snapshot" viewBox="0 0 32 32">
<title>snapshot</title>
<path fill="#fff" style="fill: var(--color3, #fff)" d="M15.827 29.020c-1.378-0.064-2.623-0.586-3.599-1.415l0.008 0.007c-0.57-0.482-1.255-0.845-2.008-1.044l-0.036-0.008c-0.31-0.056-0.668-0.088-1.033-0.088-0.013 0-0.026 0-0.039 0h0.002c-0.529 0.004-1.041 0.065-1.534 0.176l0.048-0.009c-0.164 0.037-0.357 0.065-0.555 0.077l-0.010 0c-0.013 0.002-0.028 0.002-0.043 0.002-0.186 0-0.343-0.129-0.384-0.303l-0.001-0.003c-0.067-0.213-0.108-0.415-0.15-0.613-0.106-0.493-0.196-0.795-0.381-0.827-1.985-0.302-3.174-0.76-3.405-1.302-0.020-0.049-0.035-0.106-0.042-0.165l-0-0.003c-0-0.006-0.001-0.013-0.001-0.020 0-0.16 0.118-0.292 0.272-0.314l0.002-0c1.699-0.318 3.149-1.209 4.176-2.461l0.010-0.012c0.561-0.638 1.038-1.371 1.399-2.167l0.022-0.055c-0-0-0-0.001-0-0.001 0-0.007 0.005-0.012 0.012-0.012 0 0 0 0 0 0v0c0.128-0.212 0.204-0.467 0.204-0.741 0-0.162-0.027-0.318-0.076-0.463l0.003 0.010c-0.255-0.614-1.1-0.874-1.676-1.052-0.149-0.039-0.273-0.088-0.38-0.124-0.493-0.196-1.315-0.614-1.207-1.183 0.165-0.421 0.567-0.715 1.039-0.715 0.015 0 0.030 0 0.045 0.001l-0.002-0c0.009-0 0.019-0.001 0.029-0.001 0.106 0 0.206 0.025 0.294 0.069l-0.004-0.002c0.395 0.201 0.858 0.328 1.348 0.349l0.007 0c0.026 0.002 0.056 0.003 0.086 0.003 0.263 0 0.505-0.093 0.694-0.248l-0.002 0.002q-0.018-0.394-0.046-0.789c-0.087-0.572-0.136-1.233-0.136-1.905 0-1.237 0.168-2.434 0.482-3.571l-0.022 0.094c1.112-2.486 3.564-4.188 6.413-4.188 0.028 0 0.055 0 0.083 0l-0.004-0 0.476-0.011h0.067c0.026-0 0.057-0.001 0.087-0.001 2.846 0 5.295 1.701 6.385 4.142l0.018 0.044c0.291 1.037 0.458 2.228 0.458 3.458 0 0.676-0.050 1.34-0.148 1.988l0.009-0.073-0.011 0.089c-0.013 0.243-0.030 0.475-0.042 0.714 0.183 0.144 0.417 0.231 0.671 0.231 0.015 0 0.030-0 0.045-0.001l-0.002 0c0.469-0.036 0.901-0.161 1.289-0.36l-0.019 0.009c0.122-0.054 0.265-0.087 0.415-0.088h0.001c0.172 0.004 0.335 0.036 0.486 0.091l-0.011-0.003h0.012c0.394 0.15 0.657 0.429 0.657 0.72s-0.202 0.689-1.219 1.1c-0.103 0.043-0.229 0.085-0.359 0.119l-0.021 0.005c-0.565 0.174-1.409 0.447-1.677 1.052-0.049 0.136-0.076 0.294-0.076 0.458 0 0.272 0.077 0.527 0.211 0.742l-0.003-0.006c-0 0-0 0.001-0 0.001 0 0.007 0.005 0.012 0.012 0.012 0 0 0 0 0 0v0c0.066 0.166 1.783 4.065 5.606 4.701 0.156 0.027 0.274 0.161 0.274 0.323 0 0.004-0 0.008-0 0.012v-0.001c0 0.002 0 0.004 0 0.007 0 0.061-0.015 0.118-0.042 0.168l0.001-0.002c-0.231 0.547-1.409 0.993-3.406 1.302-0.184 0.029-0.273 0.334-0.38 0.827q-0.064 0.309-0.15 0.613c-0.037 0.174-0.189 0.303-0.372 0.303-0.008 0-0.016-0-0.023-0.001l0.001 0h-0.030c-0.202-0.004-0.396-0.028-0.584-0.069l0.020 0.004c-0.442-0.099-0.95-0.155-1.471-0.155-0.006 0-0.012 0-0.017 0h0.001c-0.378 0.001-0.748 0.033-1.108 0.095l0.039-0.006c-0.79 0.205-1.476 0.569-2.053 1.058l0.008-0.006c-0.972 0.814-2.218 1.332-3.581 1.401l-0.015 0.001h-0.339z"></path>
</symbol>
<symbol id="icon-apple-store" viewBox="0 0 26 32">
<title>apple-store</title>
<path fill="#e1c15d" style="fill: var(--color1, #e1c15d)" d="M3.351 27.952c-2.723-3.979-4.841-11.209-2-16.133 1.321-2.337 3.753-3.911 6.559-4.005l0.013-0c2.085-0.043 4.021 1.408 5.304 1.408 1.257 0 3.649-1.733 6.117-1.477 2.424 0.078 4.547 1.304 5.851 3.149l0.016 0.023c-2.067 1.285-3.431 3.53-3.467 6.096l-0 0.005c0.004 2.89 1.75 5.371 4.245 6.448l0.046 0.018c-0.542 1.733-1.301 3.241-2.264 4.593l0.033-0.049c-1.315 1.967-2.693 3.887-4.88 3.923-2.124 0.049-2.839-1.251-5.277-1.251-2.46 0-3.22 1.216-5.26 1.3h-0.107c-2.031 0.001-3.591-2.132-4.929-4.047zM12.975 7.379c-0.009-0.131-0.014-0.283-0.014-0.437 0-1.727 0.643-3.303 1.702-4.503l-0.006 0.007c1.177-1.339 2.824-2.24 4.681-2.442l0.032-0.003c0.013 0.164 0.021 0.356 0.021 0.549 0 1.748-0.626 3.349-1.666 4.592l0.009-0.011c-1.113 1.376-2.801 2.249-4.693 2.249-0.002 0-0.004 0-0.005 0h0z"></path>
</symbol>
<symbol id="icon-management" viewBox="0 0 32 32">
<title>management</title>
<path fill="#e1c15d" style="fill: var(--color1, #e1c15d)" d="M31.497 19.523c-0.496-0.846-1.4-1.404-2.435-1.404-0.517 0-1.002 0.14-1.418 0.383l0.013-0.007-4.649 2.684c-0.221-1.153-1.121-2.045-2.26-2.252l-0.017-0.003-6.7-1.182c-0.407-0.075-0.876-0.118-1.354-0.118-1.439 0-2.787 0.388-3.945 1.066l0.037-0.020-8.299 4.792c-0.282 0.165-0.469 0.467-0.469 0.812 0 0.008 0 0.016 0 0.023l-0-0.001s0 6.766 0 6.766c0 0.518 0.42 0.938 0.938 0.938h5c0.248-0 0.473-0.096 0.641-0.253l-0 0 2.854-2.668 9.164 0.030c1.323-0 2.563-0.358 3.628-0.981l-0.034 0.018 8.28-4.78c0.847-0.495 1.406-1.4 1.406-2.436 0-0.518-0.14-1.004-0.385-1.421l0.007 0.013zM29.531 21.743l-8.28 4.78c-0.762 0.447-1.679 0.711-2.657 0.712h-0.024l-9.505-0.031c-0.001 0-0.002 0-0.003 0-0.248 0-0.473 0.096-0.641 0.253l0.001-0-2.855 2.669h-3.692v-5.309l7.83-4.52c0.852-0.5 1.877-0.795 2.97-0.795 0.364 0 0.72 0.033 1.066 0.095l-0.036-0.005 6.698 1.181c0.451 0.073 0.792 0.46 0.792 0.926 0 0.518-0.42 0.938-0.938 0.938-0.064 0-0.126-0.006-0.186-0.018l0.006 0.001-5.96-1.052c-0.044-0.007-0.094-0.011-0.146-0.011-0.518 0-0.938 0.42-0.938 0.938 0 0.454 0.323 0.833 0.752 0.919l0.006 0.001 5.96 1.052c0.147 0.027 0.317 0.043 0.49 0.043 0.531 0 1.028-0.148 1.451-0.405l-0.012 0.007 6.912-3.991c0.134-0.079 0.296-0.126 0.469-0.126 0.518 0 0.938 0.42 0.938 0.938 0 0.345-0.187 0.647-0.464 0.81l-0.004 0.002z"></path>
<path fill="#e1c15d" style="fill: var(--color1, #e1c15d)" d="M11.443 11.032l1.875 3.248c0.165 0.282 0.467 0.468 0.812 0.468 0.172 0 0.334-0.046 0.473-0.128l-0.004 0.002 1.364-0.787c0.262 0.183 0.561 0.358 0.874 0.509l0.039 0.017v1.576c0 0.518 0.42 0.938 0.938 0.938v0h3.75c0.518 0 0.938-0.42 0.938-0.938v-1.578c0.352-0.168 0.651-0.343 0.934-0.54l-0.021 0.014 1.364 0.787c0.134 0.079 0.296 0.125 0.468 0.125 0.345 0 0.647-0.186 0.809-0.464l0.002-0.004 1.875-3.248c0.079-0.134 0.125-0.296 0.125-0.468 0-0.345-0.186-0.647-0.464-0.809l-0.004-0.002-1.36-0.786c0.015-0.177 0.022-0.353 0.022-0.528s-0.008-0.351-0.022-0.528l1.36-0.786c0.282-0.165 0.468-0.467 0.468-0.812 0-0.172-0.047-0.334-0.128-0.473l0.002 0.004-1.875-3.248c-0.165-0.282-0.467-0.468-0.812-0.468-0.172 0-0.334 0.046-0.473 0.128l0.004-0.002-1.364 0.789c-0.262-0.183-0.561-0.358-0.874-0.509l-0.039-0.017v-1.576c0-0 0-0 0-0 0-0.518-0.42-0.937-0.937-0.937h-3.75c-0.518 0-0.938 0.42-0.938 0.938v0 1.576c-0.352 0.168-0.651 0.343-0.934 0.541l0.021-0.014-1.364-0.788c-0.134-0.079-0.296-0.125-0.468-0.125-0.345 0-0.647 0.186-0.809 0.464l-0.002 0.004-1.875 3.248c-0.079 0.134-0.125 0.296-0.125 0.468 0 0.345 0.186 0.647 0.464 0.809l0.004 0.002 1.36 0.786c-0.015 0.177-0.022 0.353-0.022 0.528s0.008 0.351 0.022 0.528l-1.36 0.786c-0.282 0.165-0.469 0.467-0.469 0.812 0 0.172 0.047 0.334 0.128 0.473l-0.002-0.004zM15.083 9.293c-0.052-0.257-0.082-0.553-0.082-0.856s0.030-0.598 0.087-0.884l-0.005 0.029c0.010-0.051 0.016-0.11 0.016-0.17 0-0.345-0.187-0.647-0.464-0.81l-0.004-0.002-1.094-0.632 0.938-1.624 1.094 0.632c0.135 0.079 0.297 0.126 0.47 0.126 0.234 0 0.447-0.085 0.611-0.227l-0.001 0.001c0.419-0.36 0.91-0.649 1.448-0.843l0.032-0.010c0.367-0.133 0.625-0.478 0.625-0.884v0-1.265h1.875v1.265c0 0.406 0.258 0.751 0.618 0.882l0.007 0.002c0.57 0.204 1.061 0.494 1.486 0.858l-0.006-0.005c0.163 0.14 0.377 0.226 0.61 0.226 0.173 0 0.335-0.047 0.474-0.129l-0.004 0.002 1.094-0.632 0.938 1.624-1.098 0.632c-0.282 0.165-0.469 0.467-0.469 0.812 0 0.060 0.006 0.119 0.016 0.176l-0.001-0.006c0.052 0.257 0.082 0.553 0.082 0.856s-0.030 0.599-0.087 0.885l0.005-0.029c-0.010 0.051-0.016 0.11-0.016 0.17 0 0.345 0.187 0.647 0.464 0.81l0.004 0.002 1.094 0.632-0.938 1.624-1.094-0.632c-0.135-0.079-0.297-0.126-0.47-0.126-0.234 0-0.447 0.085-0.611 0.227l0.001-0.001c-0.419 0.36-0.91 0.649-1.448 0.843l-0.032 0.010c-0.367 0.133-0.624 0.478-0.624 0.884v0 1.264h-1.875v-1.264c-0-0.405-0.258-0.751-0.618-0.882l-0.007-0.002c-0.57-0.204-1.061-0.494-1.486-0.858l0.006 0.005c-0.163-0.14-0.377-0.226-0.61-0.226-0.173 0-0.335 0.047-0.474 0.129l0.004-0.002-1.094 0.632-0.938-1.624 1.094-0.632c0.282-0.165 0.468-0.467 0.468-0.812 0-0.060-0.006-0.119-0.017-0.176l0.001 0.006z"></path>
<path fill="rgba(225, 193, 93, 0.3)" style="fill: var(--color2, rgba(225, 193, 93, 0.3))" d="M19.688 11.25c1.553-0.001 2.811-1.26 2.811-2.812s-1.259-2.812-2.812-2.812c-1.553 0-2.812 1.259-2.812 2.812v0c0.002 1.553 1.26 2.812 2.814 2.813h0zM19.688 7.5c0.518 0 0.938 0.42 0.938 0.938s-0.42 0.938-0.938 0.938c-0.518 0-0.938-0.42-0.938-0.938v0c0-0.518 0.42-0.937 0.938-0.938h0z"></path>
</symbol>
<symbol id="icon-play-store" viewBox="0 0 28 32">
<title>play-store</title>
<path d="M0.956 0l16 16-16 16c-0.567-0.244-0.956-0.797-0.956-1.441 0-0.002 0-0.003 0-0.005v0-29.107c0-0.645 0.389-1.2 0.946-1.441l0.010-0.004zM18.063 17.111l3.616 3.616-17.18 9.948 13.564-13.564zM23.088 12.087l4.409 2.555c0.471 0.277 0.783 0.781 0.783 1.359s-0.311 1.082-0.775 1.355l-0.007 0.004-4.411 2.555-3.913-3.913zM4.499 1.325l17.181 9.947-3.617 3.617-13.564-13.564z"></path>
</symbol>
<symbol id="icon-screens-app" viewBox="0 0 22 32">
<title>screens-app</title>
<path fill="#e1c15d" style="fill: var(--color1, #e1c15d)" d="M1.6 0h19.2c0.884 0 1.6 0.716 1.6 1.6v0 28.8c0 0.884-0.716 1.6-1.6 1.6v0h-19.2c-0.884 0-1.6-0.716-1.6-1.6v0-28.8c0-0.884 0.716-1.6 1.6-1.6v0zM11.2 24c-0.884 0-1.6 0.716-1.6 1.6s0.716 1.6 1.6 1.6c0.884 0 1.6-0.716 1.6-1.6v0c0-0.884-0.716-1.6-1.6-1.6v0z"></path>
</symbol>
<symbol id="icon-check" viewBox="0 0 32 32">
<title>check</title>
<path fill="#fff" style="fill: var(--color3, #fff)" d="M16 32c-8.837 0-16-7.163-16-16s7.163-16 16-16c8.837 0 16 7.163 16 16v0c0 8.837-7.163 16-16 16v0zM14.4 22.4l11.312-11.314-2.258-2.262-9.054 9.051-4.522-4.526-2.262 2.262z"></path>
</symbol>
<symbol id="icon-arrow-left" viewBox="0 0 16 32">
<title>arrow-left</title>
<path d="M0 16.001l16.001-16.001v32z"></path>
</symbol>
<symbol id="icon-pencil" viewBox="0 0 36 32">
<title>pencil</title>
<path fill="#e1c15d" style="fill: var(--color1, #e1c15d)" d="M20.996 10.936c-0.254-0.253-0.605-0.41-0.992-0.41-0.389 0-0.741 0.158-0.996 0.414l-9.323 9.356c-0.261 0.256-0.424 0.612-0.424 1.006 0 0.776 0.63 1.406 1.406 1.406 0.396 0 0.753-0.164 1.009-0.427l0-0 9.32-9.357c0.254-0.254 0.411-0.606 0.411-0.994s-0.157-0.739-0.411-0.994v0z"></path>
<path fill="#e1c15d" style="fill: var(--color1, #e1c15d)" opacity="0.4" d="M34.625 29.188h-18.384c-0.777 0-1.406 0.63-1.406 1.406s0.63 1.406 1.406 1.406h18.384c0.776 0 1.406-0.63 1.406-1.406s-0.63-1.406-1.406-1.406v0z"></path>
<path fill="#e1c15d" style="fill: var(--color1, #e1c15d)" d="M30.313 10.181c0.98-0.986 1.585-2.345 1.585-3.846s-0.605-2.859-1.585-3.846l0 0-0.891-0.894c-0.981-0.986-2.339-1.596-3.84-1.596s-2.859 0.61-3.84 1.595l-0 0-20.258 20.328c-0.2 0.208-0.336 0.478-0.376 0.779l-0.001 0.007-1.093 7.684c-0.009 0.059-0.014 0.128-0.014 0.197 0 0.777 0.63 1.408 1.408 1.408 0.070 0 0.14-0.005 0.207-0.015l-0.008 0.001 7.67-1.098c0.687-0.101 1.208-0.686 1.208-1.393 0-0.388-0.157-0.739-0.411-0.994l-5.586-5.604 16.692-16.749 4.589 4.605-12.73 12.773c-0.25 0.254-0.404 0.602-0.404 0.987 0 0.777 0.63 1.408 1.408 1.408 0.386 0 0.736-0.156 0.991-0.408l-0 0zM3.065 28.934l0.432-3.044 2.6 2.609zM23.737 3.582c0.472-0.474 1.124-0.768 1.846-0.768s1.374 0.293 1.845 0.767l0 0 0.892 0.894c0.473 0.477 0.765 1.134 0.765 1.859s-0.292 1.382-0.765 1.859l0-0-0.562 0.564-4.59-4.604z"></path>
</symbol>
<symbol id="icon-secure_payment" viewBox="0 0 32 32">
<title>secure_payment</title>
<path fill="#e1c15d" style="fill: var(--color1, #e1c15d)" d="M29.188 4.062h-1.313v-1.25c-0.002-1.552-1.26-2.811-2.812-2.812h-22.25c-1.552 0.002-2.811 1.26-2.812 2.812v15.188c0.002 1.552 1.26 2.811 2.812 2.812h1.313v1.25c0.002 1.552 1.26 2.811 2.812 2.812h9.646c1.074 3.437 3.758 6.078 7.147 7.070l0.075 0.019c0.077 0.023 0.166 0.036 0.258 0.036s0.18-0.013 0.264-0.038l-0.007 0.002c4.47-1.305 7.68-5.366 7.68-10.177 0-0.002 0-0.003 0-0.005v0-14.908c-0.002-1.553-1.26-2.811-2.812-2.812h-0zM30.125 6.875v2.688h-13.188v-1.062c0-0.518-0.42-0.938-0.938-0.938v0h-7c-0.518 0-0.938 0.42-0.938 0.938v0 1.062h-2.062v-2.688c0-0.518 0.42-0.937 0.938-0.938h22.25c0.517 0.001 0.937 0.42 0.937 0.938v0zM9.938 9.438h5.125v2.125h-5.125zM2.812 18.938c-0.518-0-0.937-0.42-0.938-0.938v-15.188c0-0.518 0.42-0.937 0.938-0.938h22.25c0.518 0 0.937 0.42 0.938 0.938v1.25h-19.062c-1.553 0.002-2.811 1.26-2.812 2.812v12.063zM6.938 23c-0.518-0-0.937-0.42-0.938-0.938v-10.625h2.062v1.062c0 0.518 0.42 0.938 0.938 0.938v0h7c0.518 0 0.938-0.42 0.938-0.938v0-1.062h13.187v4.151c-2.099-0.187-3.978-1.004-5.478-2.259l0.016 0.013c-0.161-0.135-0.371-0.217-0.6-0.217s-0.439 0.082-0.601 0.218l0.001-0.001c-1.698 1.421-3.905 2.283-6.313 2.283-0.030 0-0.061-0-0.091-0l0.005 0c-0.518 0-0.938 0.42-0.938 0.938v0 2.5h-1.062c-0.006-0-0.013-0-0.019-0-0.518 0-0.938 0.42-0.938 0.938s0.42 0.938 0.938 0.938c0.007 0 0.014-0 0.020-0l-0.001 0h1.062c-0.005 0.146-0.007 0.318-0.007 0.491 0 0.554 0.028 1.101 0.082 1.64l-0.006-0.068zM30.125 21.782c-0.013 3.861-2.524 7.132-6.001 8.283l-0.062 0.018c-3.538-1.169-6.049-4.44-6.062-8.299v-4.314c2.295-0.172 4.374-0.978 6.095-2.242l-0.033 0.023c1.689 1.241 3.767 2.047 6.023 2.217l0.039 0.002z"></path>
<path fill="rgba(225, 193, 93, 0.3)" style="fill: var(--color2, rgba(225, 193, 93, 0.3))" d="M11.062 19.062h-2c-0.518 0-0.938 0.42-0.938 0.938s0.42 0.938 0.938 0.938h2c0.509-0.011 0.918-0.426 0.918-0.937s-0.409-0.927-0.917-0.937l-0.001-0z"></path>
<path fill="rgba(225, 193, 93, 0.3)" style="fill: var(--color2, rgba(225, 193, 93, 0.3))" d="M22.725 21.462c-0.17-0.17-0.404-0.275-0.663-0.275-0.518 0-0.938 0.42-0.938 0.938 0 0.259 0.105 0.493 0.275 0.663l2 2c0.17 0.17 0.404 0.275 0.663 0.275s0.493-0.105 0.663-0.275l3.875-3.876c0.17-0.17 0.275-0.404 0.275-0.663 0-0.518-0.42-0.938-0.938-0.938-0.259 0-0.493 0.105-0.663 0.275l-3.212 3.212z"></path>
</symbol>
<symbol id="icon-smartphone" viewBox="0 0 23 32">
<title>smartphone</title>
<path fill="#e1c15d" style="fill: var(--color1, #e1c15d)" d="M20.312 0h-17.5c-1.552 0.002-2.811 1.26-2.812 2.812v26.375c0.002 1.552 1.26 2.811 2.812 2.812h17.5c1.552-0.002 2.811-1.26 2.812-2.812v-26.375c-0.002-1.552-1.26-2.811-2.812-2.812h-0zM21.25 29.188c-0 0.518-0.42 0.937-0.938 0.938h-17.5c-0.518-0-0.937-0.42-0.938-0.938v-26.375c0-0.518 0.42-0.937 0.938-0.938h17.5c0.518 0 0.937 0.42 0.938 0.938v0z"></path>
<path fill="rgba(225, 193, 93, 0.3)" style="fill: var(--color2, rgba(225, 193, 93, 0.3))" d="M19.063 3.188h-15c-0.518 0-0.938 0.42-0.938 0.938v21.25c0 0.518 0.42 0.938 0.938 0.938v0h15c0.518 0 0.938-0.42 0.938-0.938v0-21.25c0-0.518-0.42-0.938-0.938-0.938v0zM18.125 24.438h-13.125v-19.375h13.125z"></path>
<path fill="#e1c15d" style="fill: var(--color1, #e1c15d)" d="M13.438 27.312h-3.75c-0.518 0-0.938 0.42-0.938 0.938s0.42 0.938 0.938 0.938h3.75c0.509-0.011 0.918-0.426 0.918-0.937s-0.409-0.927-0.917-0.937l-0.001-0z"></path>
</symbol>
<symbol id="icon-villa" viewBox="0 0 36 32">
<title>villa</title>
<path fill="#e1c15d" style="fill: var(--color1, #e1c15d)" d="M1.067 25.6h1.066v5.333c0 0.589 0.478 1.067 1.067 1.067v0h30.009c0.589 0 1.067-0.478 1.067-1.067v0-5.333h1.067c0.589-0 1.066-0.478 1.066-1.067 0-0.174-0.042-0.338-0.115-0.483l0.003 0.006-2.134-4.267c-0.179-0.352-0.539-0.59-0.954-0.59-0 0-0 0-0 0h-1.066v-2.133h1.067c0.589-0 1.066-0.478 1.066-1.067 0-0.174-0.042-0.338-0.115-0.483l0.003 0.006-2.134-4.267c-0.179-0.352-0.539-0.59-0.954-0.59-0 0-0 0-0 0h-5.404v-2.667l0.427 0.32c0.178 0.138 0.404 0.221 0.65 0.221 0.589 0 1.067-0.478 1.067-1.067 0-0.352-0.171-0.665-0.434-0.859l-0.003-0.002-8.533-6.4c-0.176-0.133-0.399-0.213-0.64-0.213s-0.464 0.080-0.643 0.215l0.003-0.002-8.533 6.4c-0.254 0.197-0.416 0.502-0.416 0.846 0 0.589 0.478 1.067 1.067 1.067 0.237 0 0.456-0.077 0.632-0.208l-0.003 0.002 0.427-0.32v2.667h-5.405c-0 0-0 0-0 0-0.415 0-0.775 0.237-0.951 0.584l-0.003 0.006-2.133 4.266c-0.071 0.139-0.113 0.303-0.113 0.477 0 0.589 0.478 1.067 1.067 1.067h1.067v2.133h-1.067c-0 0-0 0-0 0-0.415 0-0.775 0.237-0.951 0.584l-0.003 0.006-2.133 4.267c-0.071 0.139-0.112 0.303-0.112 0.477 0 0.589 0.477 1.067 1.066 1.067h0zM10.738 25.6v4.267h-6.471v-4.267zM12.871 17.067h10.667v12.8h-2.134v-3.2c0-1.767-1.433-3.2-3.2-3.2s-3.2 1.433-3.2 3.2v0 3.2h-2.133zM19.271 29.867h-2.133v-3.2c0.012-0.58 0.485-1.046 1.067-1.046s1.055 0.466 1.067 1.045l0 0.001zM32.142 29.867h-6.471v-4.267h6.471zM33.616 23.467h-7.945v-2.134h6.88zM30.009 19.2h-4.338v-2.133h4.338zM30.416 12.8l1.067 2.133h-5.812v-2.133zM18.204 2.4l5.334 4v8.533h-10.667v-8.533zM5.993 12.8h4.745v2.133h-5.812zM6.4 17.067h4.338v2.133h-4.338zM3.859 21.333h6.88v2.133h-7.946z"></path>
<path fill="rgba(225, 193, 93, 0.3)" style="fill: var(--color2, rgba(225, 193, 93, 0.3))" d="M18.204 12.8c1.767 0 3.2-1.433 3.2-3.2s-1.433-3.2-3.2-3.2c-1.767 0-3.2 1.433-3.2 3.2v0c0.002 1.767 1.433 3.198 3.2 3.2h0zM18.204 8.533c0.589 0 1.067 0.478 1.067 1.067s-0.478 1.067-1.067 1.067c-0.589 0-1.067-0.478-1.067-1.067v0c0.001-0.589 0.478-1.066 1.067-1.067h0z"></path>
<path fill="rgba(225, 193, 93, 0.3)" style="fill: var(--color2, rgba(225, 193, 93, 0.3))" d="M16.071 21.333h4.267c0.58-0.012 1.046-0.485 1.046-1.067s-0.466-1.055-1.045-1.067l-0.001-0h-4.267c-0.006-0-0.013-0-0.021-0-0.589 0-1.067 0.478-1.067 1.067s0.478 1.067 1.067 1.067c0.007 0 0.015-0 0.022-0l-0.001 0z"></path>
</symbol>
</defs>
</svg>
