<?xml version="1.0" standalone="no"?>
<!DOCTYPE svg PUBLIC "-//W3C//DTD SVG 20010904//EN"
 "http://www.w3.org/TR/2001/REC-SVG-20010904/DTD/svg10.dtd">
<svg version="1.0" xmlns="http://www.w3.org/2000/svg"
 width="279.000000pt" height="279.000000pt" viewBox="0 0 279.000000 279.000000"
 preserveAspectRatio="xMidYMid meet">
<metadata>
Created by potrace 1.14, written by Peter Selinger 2001-2017
</metadata>
<g transform="translate(0.000000,279.000000) scale(0.100000,-0.100000)"
fill="#000000" stroke="none">
<path d="M1270 1977 l0 -224 60 -63 c33 -35 61 -59 61 -54 4 27 5 541 1 552
-3 8 -25 12 -63 12 l-59 0 0 -223z"/>
<path d="M683 1763 l0 -428 61 0 61 0 1 273 c1 150 3 275 6 277 3 3 57 -50
120 -117 64 -68 149 -157 189 -199 41 -41 115 -118 164 -170 50 -52 95 -98
101 -102 13 -8 44 24 454 454 91 95 187 195 214 223 l49 50 2 75 c2 42 0 80
-3 85 -2 4 -39 -28 -81 -71 -42 -44 -143 -151 -226 -237 -82 -87 -206 -216
-275 -288 l-126 -130 -75 79 c-92 95 -151 156 -339 353 -237 249 -287 300
-292 300 -3 0 -6 -192 -5 -427z"/>
<path d="M7 1043 c-11 -11 -8 -183 3 -183 11 0 13 11 11 90 l-1 55 51 -70 c28
-39 55 -71 60 -73 12 -5 12 175 -1 183 -10 6 -14 -33 -10 -105 l1 -35 -17 25
c-10 14 -24 31 -30 37 -7 7 -22 28 -34 48 -24 38 -24 38 -33 28z"/>
<path d="M280 1039 c-31 -11 -60 -57 -55 -85 2 -10 4 -25 4 -32 2 -26 49 -62
83 -62 97 0 129 133 41 175 -35 17 -38 17 -73 4z m75 -32 c36 -30 39 -70 7
-102 -29 -29 -62 -32 -90 -7 -49 41 -19 128 45 131 7 1 24 -9 38 -22z"/>
<path d="M495 1040 c-3 -4 -6 -35 -6 -67 -2 -97 0 -115 12 -108 5 4 9 17 7 28
-3 26 8 47 25 47 7 0 23 -18 37 -40 24 -39 40 -51 40 -29 0 6 -9 23 -20 39
-19 27 -19 27 0 45 41 37 16 83 -47 90 -23 2 -45 0 -48 -5z m71 -19 c18 -1 26
-32 13 -47 -6 -8 -24 -14 -40 -14 -25 0 -29 4 -29 28 0 34 6 41 28 37 9 -2 22
-4 28 -4z"/>
<path d="M674 1041 c-9 -10 -3 -18 14 -18 41 0 42 -1 42 -83 0 -47 4 -80 10
-80 6 0 10 15 11 33 3 133 3 132 28 132 13 0 26 5 28 11 3 10 -123 15 -133 5z"/>
<path d="M890 956 c0 -57 4 -96 10 -96 6 0 10 20 10 44 l0 44 48 -2 47 -1 3
-42 c6 -82 22 -43 22 53 0 61 -4 93 -10 89 -5 -3 -10 -22 -10 -41 0 -19 -4
-34 -10 -35 -5 0 -23 -1 -40 -1 -16 0 -34 1 -40 1 -5 1 -10 16 -10 35 0 19 -4
38 -10 41 -6 4 -10 -28 -10 -89z"/>
<path d="M1220 1045 c0 -14 64 -176 71 -181 9 -5 57 90 62 126 2 10 9 26 17
35 13 15 12 17 -4 14 -12 -3 -27 -27 -44 -73 l-26 -70 -17 40 c-9 22 -20 54
-23 71 -4 17 -14 34 -22 37 -8 3 -14 3 -14 1z"/>
<path d="M1456 982 c-15 -37 -32 -75 -37 -84 -12 -23 -12 -38 1 -38 5 0 12 10
15 23 5 20 13 24 50 24 36 1 45 -3 54 -23 12 -27 28 -32 28 -9 0 8 -4 15 -9
15 -4 0 -8 8 -8 18 0 10 -3 22 -7 26 -4 3 -8 12 -9 19 -4 22 -33 86 -42 91 -5
3 -21 -25 -36 -62z m51 -17 c11 -34 11 -35 -18 -35 -33 0 -32 -2 -18 39 14 40
23 39 36 -4z"/>
<path d="M1666 1031 c-27 -16 -36 -39 -36 -86 1 -49 41 -85 95 -85 29 0 80 44
70 61 -4 6 -16 0 -30 -16 -45 -47 -115 -18 -115 49 0 63 61 91 110 50 27 -23
30 -24 30 -7 0 22 -47 53 -78 50 -12 -1 -33 -8 -46 -16z"/>
<path d="M1930 1036 c0 -8 -13 -46 -30 -84 -34 -81 -38 -101 -15 -82 8 7 15
19 15 27 0 10 11 13 43 11 32 -2 44 -8 52 -25 10 -24 25 -31 25 -11 0 25 -63
167 -76 172 -8 3 -14 -1 -14 -8z m25 -46 c-3 -5 -1 -10 5 -10 6 0 9 -4 5 -9
-3 -5 -1 -12 5 -16 6 -4 8 -11 5 -16 -8 -12 -55 -12 -55 1 0 17 23 60 32 60 5
0 6 -4 3 -10z"/>
<path d="M2064 1038 c-7 -11 22 -22 35 -14 19 12 34 -45 18 -71 -4 -6 -4 -14
1 -17 5 -3 7 -22 6 -42 -3 -27 0 -34 7 -27 7 7 12 42 14 80 3 86 1 81 30 78
14 -2 25 2 25 8 0 14 -128 18 -136 5z"/>
<path d="M2279 1043 c-1 -12 -1 -145 0 -165 1 -10 5 -18 10 -18 13 0 14 177 1
185 -5 3 -10 3 -11 -2z"/>
<path d="M2429 1035 c-53 -29 -60 -110 -13 -152 29 -27 63 -29 103 -8 61 31
58 130 -4 159 -40 19 -52 19 -86 1z m98 -41 c18 -20 20 -29 13 -56 -12 -40
-18 -46 -56 -54 -58 -11 -97 51 -68 108 23 44 72 45 111 2z"/>
<path d="M2770 981 c0 -41 -4 -71 -10 -71 -5 0 -10 6 -10 13 0 7 -8 22 -18 33
-10 10 -27 34 -37 52 -34 57 -45 42 -45 -60 0 -103 17 -113 22 -13 l3 60 48
-67 c27 -38 53 -68 58 -68 12 0 12 177 -1 185 -6 4 -10 -20 -10 -64z"/>
<path d="M870 713 c-1 -18 55 -113 65 -110 15 5 65 106 55 112 -4 3 -17 -15
-29 -40 -12 -25 -23 -45 -26 -45 -2 0 -14 18 -25 39 -19 38 -40 61 -40 44z"/>
<path d="M1138 713 c-9 -18 -2 -107 8 -110 7 -2 10 15 9 52 -1 52 -8 76 -17
58z"/>
<path d="M1317 713 c-4 -3 -7 -30 -7 -60 l0 -53 56 0 c34 0 53 4 49 10 -3 6
-24 10 -45 10 l-39 0 2 40 c3 42 -4 65 -16 53z"/>
<path d="M1564 712 c-6 -4 -11 -31 -11 -59 l0 -53 54 0 c29 0 53 5 53 10 0 6
-20 10 -44 10 l-44 0 2 50 c1 28 1 50 1 50 0 0 -5 -4 -11 -8z"/>
<path d="M1839 703 c-27 -33 -60 -103 -49 -103 6 0 13 6 16 14 7 19 83 19 91
0 3 -8 11 -14 19 -14 9 0 4 16 -17 53 -40 68 -43 71 -60 50z m28 -32 c10 -15
9 -20 -1 -24 -20 -8 -37 8 -30 26 8 22 16 21 31 -2z"/>
</g>
</svg>
